<svg width="24" height="25" viewBox="0 0 24 25" fill="none" xmlns="http://www.w3.org/2000/svg">
<path d="M13.0281 2.50073C14.1535 2.50259 14.7238 2.50855 15.2166 2.52322L15.4107 2.52956C15.6349 2.53753 15.8561 2.54753 16.1228 2.56003C17.1869 2.6092 17.9128 2.77753 18.5503 3.02503C19.2094 3.2792 19.7661 3.62253 20.3219 4.17837C20.8769 4.7342 21.2203 5.29253 21.4753 5.95003C21.7219 6.5867 21.8903 7.31337 21.9403 8.37753C21.9522 8.6442 21.9618 8.8654 21.9697 9.08964L21.976 9.28373C21.9906 9.77647 21.9973 10.3469 21.9994 11.4723L22.0002 12.2179C22.0003 12.309 22.0003 12.403 22.0003 12.5L22.0002 12.7821L21.9996 13.5278C21.9977 14.6532 21.9918 15.2236 21.9771 15.7163L21.9707 15.9104C21.9628 16.1347 21.9528 16.3559 21.9403 16.6225C21.8911 17.6867 21.7219 18.4125 21.4753 19.05C21.2211 19.7092 20.8769 20.2659 20.3219 20.8217C19.7661 21.3767 19.2069 21.72 18.5503 21.975C17.9128 22.2217 17.1869 22.39 16.1228 22.44C15.8561 22.4519 15.6349 22.4616 15.4107 22.4694L15.2166 22.4757C14.7238 22.4904 14.1535 22.497 13.0281 22.4992L12.2824 22.5C12.1913 22.5 12.0973 22.5 12.0003 22.5H11.7182L10.9725 22.4993C9.8471 22.4975 9.27672 22.4915 8.78397 22.4768L8.58989 22.4705C8.36564 22.4625 8.14444 22.4525 7.87778 22.44C6.81361 22.3909 6.08861 22.2217 5.45028 21.975C4.79194 21.7209 4.23444 21.3767 3.67861 20.8217C3.12278 20.2659 2.78028 19.7067 2.52528 19.05C2.27778 18.4125 2.11028 17.6867 2.06028 16.6225C2.0484 16.3559 2.03871 16.1347 2.03086 15.9104L2.02457 15.7163C2.00994 15.2236 2.00327 14.6532 2.00111 13.5278L2.00098 11.4723C2.00284 10.3469 2.00879 9.77647 2.02346 9.28373L2.02981 9.08964C2.03778 8.8654 2.04778 8.6442 2.06028 8.37753C2.10944 7.31253 2.27778 6.58753 2.52528 5.95003C2.77944 5.2917 3.12278 4.7342 3.67861 4.17837C4.23444 3.62253 4.79278 3.28003 5.45028 3.02503C6.08778 2.77753 6.81278 2.61003 7.87778 2.56003C8.14444 2.54816 8.36564 2.53847 8.58989 2.53062L8.78397 2.52433C9.27672 2.50969 9.8471 2.50302 10.9725 2.50086L13.0281 2.50073ZM12.0003 7.50003C9.23738 7.50003 7.00028 9.73956 7.00028 12.5C7.00028 15.2629 9.23981 17.5 12.0003 17.5C14.7632 17.5 17.0003 15.2605 17.0003 12.5C17.0003 9.73713 14.7607 7.50003 12.0003 7.50003ZM12.0003 9.50003C13.6572 9.50003 15.0003 10.8427 15.0003 12.5C15.0003 14.1569 13.6576 15.5 12.0003 15.5C10.3434 15.5 9.00028 14.1574 9.00028 12.5C9.00028 10.8431 10.3429 9.50003 12.0003 9.50003ZM17.2503 6.00003C16.561 6.00003 16.0003 6.55994 16.0003 7.24918C16.0003 7.93843 16.5602 8.4992 17.2503 8.4992C17.9395 8.4992 18.5003 7.9393 18.5003 7.24918C18.5003 6.55994 17.9386 5.99917 17.2503 6.00003Z" fill="#FFFDFD"/>
</svg>
