<svg width="54" height="55" viewBox="0 0 104 55" fill="none" xmlns="http://www.w3.org/2000/svg">
<g clip-path="url(#clip0_6_143)">
<path d="M48 18.5H57V15.125C57 10.7758 60.5257 7.25 64.875 7.25C69.2243 7.25 72.75 10.7758 72.75 15.125C72.75 19.4742 69.2243 23 64.875 23H61.5V32H64.875C69.2243 32 72.75 35.5257 72.75 39.875C72.75 44.2243 69.2243 47.75 64.875 47.75C60.5257 47.75 57 44.2243 57 39.875V36.5H48V39.875C48 44.2243 44.4742 47.75 40.125 47.75C35.7758 47.75 32.25 44.2243 32.25 39.875C32.25 35.5257 35.7758 32 40.125 32H43.5V23H40.125C35.7758 23 32.25 19.4742 32.25 15.125C32.25 10.7758 35.7758 7.25 40.125 7.25C44.4742 7.25 48 10.7758 48 15.125V18.5ZM43.5 18.5V15.125C43.5 13.261 41.989 11.75 40.125 11.75C38.261 11.75 36.75 13.261 36.75 15.125C36.75 16.989 38.261 18.5 40.125 18.5H43.5ZM43.5 36.5H40.125C38.261 36.5 36.75 38.0111 36.75 39.875C36.75 41.7389 38.261 43.25 40.125 43.25C41.989 43.25 43.5 41.7389 43.5 39.875V36.5ZM61.5 18.5H64.875C66.7389 18.5 68.25 16.989 68.25 15.125C68.25 13.261 66.7389 11.75 64.875 11.75C63.0111 11.75 61.5 13.261 61.5 15.125V18.5ZM61.5 36.5V39.875C61.5 41.7389 63.0111 43.25 64.875 43.25C66.7389 43.25 68.25 41.7389 68.25 39.875C68.25 38.0111 66.7389 36.5 64.875 36.5H61.5ZM48 23V32H57V23H48Z" fill="white"/>
</g>
<defs>
<clipPath id="clip0_6_143">
<rect width="103.5" height="54" fill="white" transform="translate(0.5 0.5)"/>
</clipPath>
</defs>
</svg>
