<svg width="18" height="17" viewBox="0 0 18 17" fill="none" xmlns="http://www.w3.org/2000/svg">
<path d="M5 0.5H18V2.5H5V0.5ZM1.5 3C0.67157 3 0 2.32843 0 1.5C0 0.67157 0.67157 0 1.5 0C2.32843 0 3 0.67157 3 1.5C3 2.32843 2.32843 3 1.5 3ZM1.5 10C0.67157 10 0 9.3284 0 8.5C0 7.6716 0.67157 7 1.5 7C2.32843 7 3 7.6716 3 8.5C3 9.3284 2.32843 10 1.5 10ZM1.5 16.9C0.67157 16.9 0 16.2284 0 15.4C0 14.5716 0.67157 13.9 1.5 13.9C2.32843 13.9 3 14.5716 3 15.4C3 16.2284 2.32843 16.9 1.5 16.9ZM5 7.5H18V9.5H5V7.5ZM5 14.5H18V16.5H5V14.5Z" fill="black"/>
</svg>
