<svg width="30" height="23" viewBox="0 0 30 23" fill="none" xmlns="http://www.w3.org/2000/svg">
<path d="M2 0.25C1.10254 0.25 0.375 0.80965 0.375 1.5V9C0.375 9.69037 1.10254 10.25 2 10.25H11.75C12.6475 10.25 13.375 9.69037 13.375 9V1.5C13.375 0.80965 12.6475 0.25 11.75 0.25H2ZM2 12.75C1.10254 12.75 0.375 13.3096 0.375 14V21.5C0.375 22.1904 1.10254 22.75 2 22.75H11.75C12.6475 22.75 13.375 22.1904 13.375 21.5V14C13.375 13.3096 12.6475 12.75 11.75 12.75H2ZM18.25 12.75C17.3525 12.75 16.625 13.3096 16.625 14V21.5C16.625 22.1904 17.3525 22.75 18.25 22.75H28C28.8975 22.75 29.625 22.1904 29.625 21.5V14C29.625 13.3096 28.8975 12.75 28 12.75H18.25ZM19.875 20.25V15.25H26.375V20.25H19.875ZM3.625 7.75V2.75H10.125V7.75H3.625ZM3.625 20.25V15.25H10.125V20.25H3.625ZM21.5 10.25V6.5H16.625V4H21.5V0.25H24.75V4H29.625V6.5H24.75V10.25H21.5Z" fill="white"/>
</svg>
