<svg width="35" height="31" viewBox="0 0 35 31" fill="none" xmlns="http://www.w3.org/2000/svg">
<path d="M3 -11C1.34316 -11 0 -9.65684 0 -8V10C0 11.6569 1.34316 13 3 13H21C22.6569 13 24 11.6569 24 10V-8C24 -9.65684 22.6569 -11 21 -11H3ZM3 19C1.34316 19 0 20.3431 0 22V40C0 41.6569 1.34316 43 3 43H21C22.6569 43 24 41.6569 24 40V22C24 20.3431 22.6569 19 21 19H3ZM33 19C31.3431 19 30 20.3431 30 22V40C30 41.6569 31.3431 43 33 43H51C52.6569 43 54 41.6569 54 40V22C54 20.3431 52.6569 19 51 19H33ZM36 37V25H48V37H36ZM6 7V-5H18V7H6ZM6 37V25H18V37H6ZM39 13V4H30V-2H39V-11H45V-2H54V4H45V13H39Z" fill="white"/>
</svg>
