<svg width="110" height="30" viewBox="0 0 110 30" fill="none" xmlns="http://www.w3.org/2000/svg">
<path fill-rule="evenodd" clip-rule="evenodd" d="M27.5 0.0454559C42.6877 0.0454559 55 3.31785 55 7.35455V0.0454559H82.5C97.6877 0.0454559 110 3.31785 110 7.35455C110 11.3912 97.6877 14.6636 82.5 14.6636C97.6877 14.6636 110 17.9361 110 21.9727C110 23.9771 106.964 25.793 102.048 27.1135L101.946 27.1411L101.854 27.1652C96.885 28.4737 90.0477 29.2818 82.5 29.2818C75.0038 29.2818 68.208 28.4846 63.2473 27.1918C63.1829 27.175 63.1185 27.158 63.0545 27.1411C62.9942 27.1251 62.9343 27.109 62.8746 27.0928C58.0041 25.7741 55 23.9666 55 21.9727C55 26.0094 42.6877 29.2818 27.5 29.2818C12.3122 29.2818 0 26.0094 0 21.9727V14.6636H27.5C12.3122 14.6636 0 11.3912 0 7.35455C0 3.31785 12.3122 0.0454559 27.5 0.0454559ZM49.5 7.35455C49.5 10.5839 39.6503 13.2018 27.5 13.2018V1.50727C39.6503 1.50727 49.5 4.12519 49.5 7.35455ZM104.5 21.9727C104.5 18.7434 94.6503 16.1255 82.5 16.1255C70.3497 16.1255 60.5 18.7434 60.5 21.9727H104.5ZM5.5 16.1255V21.9727C5.5 25.2021 15.3497 27.82 27.5 27.82C39.6503 27.82 49.5 25.2021 49.5 21.9727V16.1255H5.5ZM60.5 13.2018V1.50727H82.5C94.6503 1.50727 104.5 4.12519 104.5 7.35455C104.5 10.5839 94.6503 13.2018 82.5 13.2018H60.5Z" fill="blue"/>
</svg>
